<?xml version="1.0" encoding="utf-8"?>
<!-- Generator: Adobe Illustrator 22.0.0, SVG Export Plug-In . SVG Version: 6.00 Build 0)  -->
<svg version="1.1" id="Layer_1" xmlns="http://www.w3.org/2000/svg" xmlns:xlink="http://www.w3.org/1999/xlink" x="0px" y="0px"
	 viewBox="0 0 166.2 281.2" style="enable-background:new 0 0 166.2 281.2;" xml:space="preserve">
<g>
	<circle cx="95.7" cy="40.2" r="20.9"/>
	<path d="M88,251.6v5.6c0,4.5,3.7,8.3,8.3,8.3h0c4.5,0,8.3-3.7,8.3-8.3v-1.4c-0.8,0.1-1.5,0.1-2.3,0.1
		C97.5,255.9,92.6,254.4,88,251.6z"/>
	<path d="M99.9,183l-1.2,0.1c-3.2,0.3-5.9,0.5-8.3,1.4c-1,0.4-1.8,0.8-2.5,1.2v19.6v4.6v7.2v4.3v18.4l0.7,0.1
		c3.1,0.6,6.3,1.1,9.3,1.1c2.7,0,4.8-0.5,6.5-1.4V230v-4.6v-7.2v-4.3v-31.3C102.9,182.7,101.4,182.8,99.9,183z"/>
	<path d="M82.8,115.6l0-2.9c-5.9-1.3-8.9-2.6-14.5-4.1c-4.1-1.1-7.8-2.5-10.9-3.8c-2.8-1.1-5.3-2.5-7.8-4.4
		c-1.6-1.2-6.8-4.4-6.3-9.5c0.8-8,5.8-9.7,8.4-9.9c3.7-0.3,9.1,3.4,12.1,3.9c6.5,1.1,10.6-0.3,14.2-2.2C88,77.5,88,70.9,79.2,64.5
		c-3.4-2.4-11.5-5.4-15.6-5.4c-9,0-13.6,1.8-21.1,5.2c-2.2,1-7,3.4-10.7,6c-2.5,1.7-5.2,4.5-7,7.7c-0.7,1.3-1.3,2.7-1.8,4.5
		c-0.4,1.5-0.6,2.9-0.8,4.2l0,0.2c-0.2,1.5-0.2,2.9-0.2,4.2c0,1.2,0.1,2.4,0.2,3.9c0.1,1.3,0.3,2.4,0.5,3.7c0.2,1.2,0.6,2.9,1.2,4.4
		c1,2.2,2.6,5.4,4.8,8c1.9,2.3,4.4,4.6,6.7,6.3c4,2.8,8.9,5.3,14.4,7.4c5,1.9,9.9,3,13.9,3.9c7.2,1.6,11.9,2.8,19.1,3.9v-1.4V115.6z
		"/>
	<path d="M110.3,239.4c-2.3,3.7-5.9,5.5-11.4,5.5c-3.1,0-6.5-0.6-9.6-1.1l-8.7-1.6l7.3,5.1c5,3.5,10.3,5.4,15.4,5.4
		c5.1,0,9.8-2,13.5-5.7c5.4-5.3,6.3-11.7,2.9-19.3c-2.1-4.7-8.1-7.6-12.1-9.5v12.3C110.1,232.5,112.6,235.7,110.3,239.4z"/>
	<path d="M147.4,149.5l0-0.5c-0.2-2.3-0.4-4.8-1.6-7.3c-1.2-2.8-3-5.6-5-7.6c-1.9-2.1-4.7-4.2-7.2-5.7c-4.3-2.5-8.5-4.7-13.7-6.3
		c-3.8-1.2-6.9-2.1-10.7-3v1.1v14.8v2.7c2.3,0.4,3.8,0.9,6,1.4c3.6,0.8,5.7,1.9,9,3.5c2.7,1.3,7.1,3,6.8,11
		c-0.2,5.8-8.1,8.8-11.2,9.8c-2.9,1-6.3,1.7-10.7,2.5c-0.5,0.1-1.1,0.2-1.7,0.2c-1.4,0.2-2.8,0.4-4.3,0.6c-2,0.2-4,0.5-6.1,0.8
		c-5.3,0.8-9.6,1.9-13.2,3.4c-0.2,0.1-0.5,0.2-0.8,0.4c-0.2,0.1-0.5,0.2-0.7,0.3l-0.5,0.3c-0.2,0.1-0.4,0.2-0.7,0.4
		c-0.3,0.2-0.4,0.3-0.6,0.4l-0.5,0.3c-0.4,0.3-0.9,0.6-1.4,0.9c-0.5,0.4-1,0.9-1.5,1.3c-0.8,0.8-1.7,1.7-2.6,2.8
		c-0.9,1-1.7,2.2-2.3,3.3c-0.6,1.1-1.1,2.3-1.5,3.3c-0.4,1.2-0.8,2.3-1,3.3c-0.3,1.2-0.5,2.2-0.6,3.3l0,0.3c-0.1,1-0.2,2-0.2,3.1
		c0.2,3.8,0.8,8.7,3.8,12.9l0.3,0.4c2.3,3.3,4.1,6,8,8.5c1.2,0.8,2.5,1.5,3.9,2.2v-12.4c-1.6-1.3-2.7-2.6-3.7-4.5
		c-1.3-2.3-1.8-4.4-1.4-7.2c0.4-3.1,1.4-5.7,2.9-7.8c1.7-2.4,3.3-3.6,6-4.6c2.6-1,5.6-1.3,8.8-1.6l1.2-0.1c1.5-0.2,3.1-0.3,4.8-0.4
		c2.3-0.1,4.8-0.3,7.2-0.6l1.9-0.2c3.6-0.4,7.2-0.9,11-1.9c5.1-1.4,9.6-3.5,13.4-6c2.1-1.5,4.4-3.7,6-6c1.4-2,2.5-4.4,3.5-7.7
		c0.1-0.4,0.3-1.1,0.4-1.6l0.1-0.4c0.2-0.7,0.2-1.4,0.3-2.1c0.1-0.7,0.1-1.3,0.1-2C147.5,150.8,147.5,150.2,147.4,149.5z"/>
	<path d="M96.2,32.4L96.2,32.4c-4.5,0-8.3,3.7-8.3,8.3v70.9v4v15.7v4v31.4c2.9-0.9,6.1-1.6,9.7-2.2c2.1-0.3,4.2-0.6,6.2-0.8
		c0.2,0,0.4-0.1,0.6-0.1v-25.6v-4v-14.8v-4V40.6C104.5,36.1,100.8,32.4,96.2,32.4z"/>
</g>
</svg>
